<?xml version="1.0" standalone="no"?><!DOCTYPE svg PUBLIC "-//W3C//DTD SVG 1.1//EN" "http://www.w3.org/Graphics/SVG/1.1/DTD/svg11.dtd"><svg t="1678387517591" class="icon" viewBox="0 0 1024 1024" version="1.1" xmlns="http://www.w3.org/2000/svg" p-id="2390" xmlns:xlink="http://www.w3.org/1999/xlink" width="64" height="64"><path d="M0 948.334975v-353.103448c0-41.787271 33.877754-75.665025 75.665025-75.665025h353.103448c41.787271 0 75.665025 33.877754 75.665025 75.665025v353.103448c0 41.787271-33.877754 75.665025-75.665025 75.665025H75.665025c-41.787271 0-75.665025-33.877754-75.665025-75.665025z" fill="#21B5A2" p-id="2391"></path><path d="M50.44335 771.783251c0 111.434404 90.338995 201.773399 201.773399 201.773399s201.773399-90.338995 201.773399-201.773399-90.338995-201.773399-201.773399-201.773399-201.773399 90.338995-201.773399 201.773399z m116.019704 0q0-16.358778 6.022936-31.567448 6.537458-16.510108 19.092808-29.070503 12.560394-12.560394 29.070502-19.092807Q235.85797 686.029557 252.216749 686.029557t31.567448 6.022936q16.510108 6.537458 29.070503 19.092807 12.560394 12.560394 19.092807 29.070503Q337.970443 755.424473 337.970443 771.783251t-6.022936 31.567449q-6.537458 16.510108-19.092807 29.070502-12.560394 12.560394-29.070503 19.092808Q268.575527 857.536946 252.216749 857.536946t-31.567449-6.022936q-16.510108-6.537458-29.070502-19.092808-12.560394-12.560394-19.092808-29.070502Q166.463054 788.14203 166.463054 771.783251z" fill="#FFFFFF" p-id="2392"></path><path d="M519.566502 948.334975v-353.103448c0-41.787271 33.877754-75.665025 75.665025-75.665025h353.103448c41.787271 0 75.665025 33.877754 75.665025 75.665025v353.103448c0 41.787271-33.877754 75.665025-75.665025 75.665025h-353.103448c-41.787271 0-75.665025-33.877754-75.665025-75.665025z" fill="#E65841" p-id="2393"></path><path d="M570.009852 897.891626v-176.551725c0-83.579586 67.750463-151.330049 151.330049-151.330049h100.8867c83.579586 0 151.330049 67.750463 151.330049 151.330049v176.551725c0 41.787271-33.877754 75.665025-75.665024 75.665024h-252.216749c-41.787271 0-75.665025-33.877754-75.665025-75.665024z" fill="#FFFFFF" p-id="2394"></path><path d="M907.980296 721.339901c0 27.859862-22.583488 50.44335-50.44335 50.44335s-50.44335-22.583488-50.44335-50.44335 22.583488-50.44335 50.44335-50.443349 50.44335 22.583488 50.44335 50.443349zM736.472906 721.339901c0 27.859862-22.583488 50.44335-50.443349 50.44335s-50.44335-22.583488-50.44335-50.44335 22.583488-50.44335 50.44335-50.443349 50.44335 22.583488 50.443349 50.443349zM736.472906 832.315271a5.044335 5.044335 0 0 1 5.044335-5.044335h65.576355a5.044335 5.044335 0 1 1 0 10.08867h-65.576355a5.044335 5.044335 0 0 1-5.044335-5.044335z" fill="#E65841" p-id="2395"></path><path d="M519.566502 428.768473V75.665025c0-41.787271 33.877754-75.665025 75.665025-75.665025h353.103448c41.787271 0 75.665025 33.877754 75.665025 75.665025v353.103448c0 41.787271-33.877754 75.665025-75.665025 75.665025h-353.103448c-41.787271 0-75.665025-33.877754-75.665025-75.665025z" fill="#C8BF19" p-id="2396"></path><path d="M589.834089 149.579665l79.312078-79.312079 285.504316 285.50936-79.307035 79.307034-285.509359-285.509359z" fill="#FFFFFF" p-id="2397"></path><path d="M609.663369 335.029596l244.93273-244.932729c21.897458-21.897458 57.404532-21.897458 79.307034 0 21.897458 21.902502 21.902502 57.404532 0 79.307034L688.970404 414.341675c-21.897458 21.902502-57.404532 21.897458-79.307035 0-21.897458-21.902502-21.902502-57.404532 0-79.307035z" fill="#FFFFFF" p-id="2398"></path><path d="M0 428.768473V75.665025C0 33.877754 33.877754 0 75.665025 0h353.103448c41.787271 0 75.665025 33.877754 75.665025 75.665025v353.103448c0 41.787271-33.877754 75.665025-75.665025 75.665025H75.665025c-41.787271 0-75.665025-33.877754-75.665025-75.665025z" fill="#0F5069" p-id="2399"></path><path d="M81.904867 107.237517c-41.94869 42.094975-41.94869 110.349872 0 152.439803l18.401734 18.472355L252.216749 430.584433l151.910148-152.439802 18.401734-18.467311c41.94869-42.094975 41.94869-110.349872 0-152.444847-41.94869-42.094975-109.961458-42.094975-151.910148 0L252.216749 125.699783l-18.401734-18.462266c-41.94869-42.094975-109.961458-42.094975-151.910148 0z" fill="#FFFFFF" p-id="2400"></path></svg>